<svg xmlns="http://www.w3.org/2000/svg" xmlns:xlink="http://www.w3.org/1999/xlink" xmlns:sketch="http://www.bohemiancoding.com/sketch/ns" viewBox="0 0 100 100" version="1.1" x="0px" y="0px"><title>Squircle Outline by Luuk Lamers from the Noun Project</title><g stroke="none" stroke-width="1" fill="none" fill-rule="evenodd" sketch:type="MSPage"><g sketch:type="MSArtboardGroup" fill="#000000"><path d="M50,10 L50,10 C16.7614237,10 10,16.7614237 10,50 C10,83.2385763 16.7614237,90 50,90 C83.2385763,90 90,83.2385763 90,50 C90,16.7614237 83.2385763,10 50,10 L50,10 Z M50,5 L50,5 C86,5 95,14 95,50 C95,86 86,95 50,95 C14,95 5,86 5,50 C5,14 14,5 50,5 L50,5 Z" sketch:type="MSShapeGroup"/></g></g></svg>
