<svg width="256" height="256" viewBox="0 0 256 256" fill="none" xmlns="http://www.w3.org/2000/svg">
<rect width="256" height="256"/>
<path d="M252.25 128C252.25 177.925 222.8 220.975 180.325 240.725C180.29 240.47 180.25 240.21 180.2 239.955L176.205 218.76L168.125 175.93L166.655 168.115L163.75 152.71L199.63 173.355C208.74 157.545 206.695 137.01 193.34 123.29C185.255 114.985 174.565 110.76 163.82 110.64L213.245 96.605C207.98 78.02 190.895 64.405 170.63 64.405C150.355 64.405 133.265 78.02 128 96.605C122.735 78.02 105.645 64.405 85.37 64.405C65.105 64.405 48.02 78.02 42.755 96.605L92.665 110.775C82.905 111.55 73.375 115.725 66.005 123.29C52.655 137.01 50.605 157.545 59.715 173.355L95.23 152.92L92.325 168.325L90.89 175.93L82.81 218.76L78.815 239.955C78.685 240.645 78.595 241.335 78.545 242.015C34.53 222.9 3.75 179.045 3.75 128C3.75 59.38 59.38 3.75 128 3.75C196.62 3.75 252.25 59.38 252.25 128Z" fill="#FF5CB0"/>
<path d="M128 0C56.812 0 0 57.7135 0 128C0 178.811 30.053 225.044 77.051 245.454C77.5295 245.662 78.038 245.765 78.5445 245.765C79.2195 245.765 79.8915 245.583 80.485 245.224C81.525 244.596 82.1955 243.502 82.285 242.29C82.325 241.749 82.3975 241.197 82.5 240.65L98.915 153.615C99.1865 152.176 98.595 150.711 97.4015 149.863C96.2075 149.015 94.629 148.939 93.36 149.67L61.2555 168.143C54.91 154.052 57.743 137.159 68.6915 125.907C75.137 119.291 83.7565 115.244 92.9625 114.513C94.772 114.369 96.2185 112.951 96.3975 111.145C96.5765 109.339 95.436 107.664 93.69 107.168L47.554 94.069C53.5315 78.6405 68.582 68.155 85.371 68.155C103.431 68.155 119.477 80.2745 124.393 97.627C124.85 99.241 126.324 100.355 128.001 100.355C129.678 100.355 131.152 99.241 131.609 97.627C136.525 80.274 152.572 68.155 170.631 68.155C187.421 68.155 202.471 78.641 208.448 94.069L162.796 107.033C161.004 107.542 159.857 109.289 160.104 111.136C160.351 112.983 161.916 114.369 163.779 114.39C171.391 114.475 178.63 116.772 184.772 120.963C184.812 120.99 184.852 121.016 184.892 121.041C186.946 122.453 188.876 124.079 190.654 125.906C201.605 137.156 204.438 154.05 198.091 168.143L165.622 149.46C164.352 148.73 162.774 148.805 161.58 149.653C160.386 150.501 159.795 151.966 160.066 153.405L168.488 198.068C168.491 198.085 168.493 198.102 168.497 198.118L176.521 240.673C176.557 240.86 176.586 241.051 176.612 241.238C176.775 242.416 177.487 243.447 178.531 244.018C179.576 244.588 180.83 244.627 181.908 244.126C226.824 223.24 256 178.184 256 128C256 57.691 199.132 0 128 0V0ZM75.639 236.559C58.247 228.167 43.4795 215.911 32.183 201.095H82.3275L75.639 236.559ZM61.5855 176.605L90.034 160.236L83.742 193.595H26.903C19.2 181.718 13.5875 168.483 10.4365 154.462H50.472C50.7685 161.619 52.7355 168.753 56.466 175.227C57.4995 177.021 59.791 177.637 61.5855 176.605ZM50.771 146.962H8.997C8.011 140.755 7.5 134.419 7.5 128C7.5 125.868 7.559 123.745 7.668 121.632H62.4235C55.851 128.79 51.904 137.703 50.771 146.962ZM188.046 114.132C185.473 112.469 182.75 111.074 179.908 109.969L214.27 100.212C216.261 99.6465 217.418 97.5745 216.854 95.5825C211.027 75.0175 192.02 60.655 170.63 60.655C152.54 60.655 136.155 70.9195 128.001 86.5195C119.847 70.92 103.46 60.655 85.3705 60.655C63.981 60.655 44.9735 75.018 39.1475 95.5825C38.583 97.5745 39.74 99.6465 41.731 100.212L78.109 110.54C75.76 111.541 73.504 112.75 71.351 114.132H8.2925C15.0745 54.579 65.6295 7.5 128 7.5C190.373 7.5 240.926 54.581 247.708 114.132H188.046ZM183.117 235.183L176.689 201.095H223.79C212.915 215.337 199.051 226.978 183.117 235.183ZM229.096 193.595H175.275L168.946 160.026L197.76 176.605C199.553 177.638 201.846 177.021 202.879 175.227C206.609 168.753 208.577 161.619 208.874 154.462H245.577C242.469 168.325 236.922 181.561 229.096 193.595ZM247.009 146.962H208.576C207.443 137.702 203.496 128.79 196.921 121.632H248.332C248.441 123.745 248.5 125.868 248.5 128C248.5 134.391 247.995 140.728 247.009 146.962Z" fill="#CC0069"/>
<path d="M180.325 240.725C164.42 248.12 146.695 252.25 128 252.25C110.425 252.25 93.7 248.6 78.545 242.015C78.595 241.335 78.685 240.645 78.815 239.955L82.81 218.76H176.205L180.2 239.955C180.25 240.21 180.29 240.47 180.325 240.725Z" fill="#F9E9B4"/>
<path d="M168.125 175.93H90.89L92.325 168.325L95.23 152.92L129.675 133.1L163.75 152.71L166.65 168.115H166.655L168.125 175.93Z" fill="#F9E9B4"/>
<path d="M166.655 173.615H166.65L140.59 158.615C133.83 154.725 125.515 154.725 118.76 158.615L92.325 173.825L95.23 152.92L129.675 133.1L163.75 152.71L166.655 173.615Z" fill="#D0A311"/>
<path d="M176.205 218.76H82.8101L90.8901 175.93H168.125L176.205 218.76Z" fill="#F9E9B4"/>
<path d="M151.566 196.395C154.151 196.395 156.246 194.3 156.246 191.715C156.246 189.13 154.151 187.035 151.566 187.035C148.981 187.035 146.886 189.13 146.886 191.715C146.886 194.3 148.981 196.395 151.566 196.395Z" fill="#D0A311"/>
<path d="M139.419 208.079H119.599C117.528 208.079 115.849 206.4 115.849 204.329C115.849 202.258 117.528 200.579 119.599 200.579H139.419C141.49 200.579 143.169 202.258 143.169 204.329C143.169 206.4 141.49 208.079 139.419 208.079Z" fill="#D0A311"/>
<path d="M107.451 196.395C110.036 196.395 112.131 194.3 112.131 191.715C112.131 189.13 110.036 187.035 107.451 187.035C104.866 187.035 102.771 189.13 102.771 191.715C102.771 194.3 104.866 196.395 107.451 196.395Z" fill="#D0A311"/>
<path d="M163.82 110.64L213.245 96.605C207.98 78.02 190.895 64.405 170.63 64.405C150.355 64.405 133.265 78.02 128 96.605C122.735 78.02 105.645 64.405 85.37 64.405C65.105 64.405 48.02 78.02 42.755 96.605L92.665 110.775C82.905 111.55 73.375 115.725 66.005 123.29C52.655 137.01 50.605 157.545 59.715 173.355L95.23 152.92L129.675 133.1L163.75 152.71L199.63 173.355C208.74 157.545 206.695 137.01 193.34 123.29C185.255 114.985 174.565 110.76 163.82 110.64Z" fill="#7FEEF0"/>
<path d="M184.04 240.212C183.995 239.889 183.944 239.56 183.885 239.26L179.89 218.067C179.89 218.066 179.89 218.066 179.89 218.066L171.811 175.24C171.811 175.239 171.811 175.238 171.81 175.237L170.34 167.422C170.328 167.359 170.315 167.297 170.3 167.236L167.435 152.016C167.233 150.94 166.57 150.006 165.621 149.46L131.546 129.85C130.388 129.184 128.963 129.183 127.805 129.85L93.36 149.67C92.411 150.216 91.748 151.149 91.5455 152.225L87.2055 175.235V175.236L79.1255 218.065V218.066L75.1305 239.261C74.9755 240.085 74.8665 240.918 74.806 241.74C74.689 243.329 75.5895 244.819 77.0515 245.454C93.1555 252.452 110.297 256 128 256C146.822 256 164.959 252.005 181.906 244.125C183.399 243.431 184.265 241.844 184.04 240.212ZM98.5955 155.31L129.675 137.427L160.384 155.1L162.965 168.809C162.976 168.872 162.99 168.934 163.004 168.995L163.603 172.18H95.414L98.5955 155.31ZM93.999 179.68H165.016L171.682 215.01H87.3335L93.999 179.68ZM128 248.5C112.297 248.5 97.065 245.536 82.6815 239.687L85.9195 222.51H173.096L176.112 238.51C160.922 245.14 144.75 248.5 128 248.5Z" fill="#D0A311"/>
<path d="M199.626 177.106C198.991 177.106 198.349 176.945 197.76 176.605L129.675 137.427L61.585 176.605C59.792 177.638 57.499 177.021 56.4655 175.227C46.3415 157.658 49.159 135.225 63.317 120.675C67.565 116.314 72.6009 112.887 78.1084 110.54L41.7305 100.212C39.739 99.6465 38.5825 97.5745 39.147 95.5825C44.973 75.0175 63.9805 60.655 85.37 60.655C103.46 60.655 119.846 70.9195 128 86.5195C136.154 70.92 152.54 60.655 170.63 60.655C192.019 60.655 211.027 75.018 216.853 95.5825C217.417 97.5745 216.26 99.6465 214.269 100.212L179.908 109.97C185.913 112.303 191.397 115.919 196.026 120.674C210.187 135.222 213.004 157.655 202.878 175.227C202.185 176.432 200.923 177.106 199.626 177.106ZM129.675 129.35C130.321 129.35 130.966 129.517 131.545 129.85L198.09 168.143C204.437 154.05 201.604 137.157 190.653 125.906C183.535 118.594 173.99 114.504 163.778 114.39C161.914 114.369 160.35 112.984 160.103 111.137C159.856 109.29 161.003 107.542 162.795 107.033L208.447 94.069C202.47 78.641 187.419 68.155 170.63 68.155C152.57 68.155 136.524 80.2745 131.608 97.627C131.151 99.241 129.677 100.355 128 100.355C126.322 100.355 124.849 99.241 124.392 97.627C119.476 80.274 103.43 68.155 85.37 68.155C68.5805 68.155 53.53 78.6405 47.553 94.069L93.689 107.168C95.435 107.663 96.5755 109.338 96.3965 111.145C96.2179 112.951 94.771 114.37 92.9615 114.514C83.7555 115.245 75.136 119.291 68.6905 125.907C57.742 137.159 54.909 154.052 61.2545 168.143L127.804 129.85C128.383 129.517 129.029 129.35 129.675 129.35Z" fill="#25938C"/>
</svg>
