<svg width="1008" height="256" viewBox="0 0 1008 256" fill="none" xmlns="http://www.w3.org/2000/svg">
<path d="M252.25 128C252.25 177.925 222.8 220.975 180.325 240.725C180.29 240.47 180.25 240.21 180.2 239.955L176.205 218.76L168.125 175.93L166.655 168.115L163.75 152.71L199.63 173.355C208.74 157.545 206.695 137.01 193.34 123.29C185.255 114.985 174.565 110.76 163.82 110.64L213.245 96.605C207.98 78.02 190.895 64.405 170.63 64.405C150.355 64.405 133.265 78.02 128 96.605C122.735 78.02 105.645 64.405 85.37 64.405C65.105 64.405 48.02 78.02 42.755 96.605L92.665 110.775C82.905 111.55 73.375 115.725 66.005 123.29C52.655 137.01 50.605 157.545 59.715 173.355L95.23 152.92L92.325 168.325L90.89 175.93L82.81 218.76L78.815 239.955C78.685 240.645 78.595 241.335 78.545 242.015C34.53 222.9 3.75 179.045 3.75 128C3.75 59.38 59.38 3.75 128 3.75C196.62 3.75 252.25 59.38 252.25 128Z" fill="#FF5CB0"/>
<path d="M128 0C56.812 0 0 57.7135 0 128C0 178.811 30.053 225.044 77.051 245.454C77.5295 245.662 78.038 245.765 78.5445 245.765C79.2195 245.765 79.8915 245.583 80.485 245.224C81.525 244.596 82.1955 243.502 82.285 242.29C82.325 241.749 82.3975 241.197 82.5 240.65L98.915 153.615C99.1865 152.176 98.595 150.711 97.4015 149.863C96.2075 149.015 94.629 148.939 93.36 149.67L61.2555 168.143C54.91 154.052 57.743 137.159 68.6915 125.907C75.137 119.291 83.7565 115.244 92.9625 114.513C94.772 114.369 96.2185 112.951 96.3975 111.145C96.5765 109.339 95.436 107.664 93.69 107.168L47.554 94.069C53.5315 78.6405 68.582 68.155 85.371 68.155C103.431 68.155 119.477 80.2745 124.393 97.627C124.85 99.241 126.324 100.355 128.001 100.355C129.678 100.355 131.152 99.241 131.609 97.627C136.525 80.274 152.572 68.155 170.631 68.155C187.421 68.155 202.471 78.641 208.448 94.069L162.796 107.033C161.004 107.542 159.857 109.289 160.104 111.136C160.351 112.983 161.916 114.369 163.779 114.39C171.391 114.475 178.63 116.772 184.772 120.963C184.812 120.99 184.852 121.016 184.892 121.041C186.946 122.453 188.876 124.079 190.654 125.906C201.605 137.156 204.438 154.05 198.091 168.143L165.622 149.46C164.352 148.73 162.774 148.805 161.58 149.653C160.386 150.501 159.795 151.966 160.066 153.405L168.488 198.068C168.491 198.085 168.493 198.102 168.497 198.118L176.521 240.673C176.557 240.86 176.586 241.051 176.612 241.238C176.775 242.416 177.487 243.447 178.531 244.018C179.576 244.588 180.83 244.627 181.908 244.126C226.824 223.24 256 178.184 256 128C256 57.691 199.132 0 128 0V0ZM75.639 236.559C58.247 228.167 43.4795 215.911 32.183 201.095H82.3275L75.639 236.559ZM61.5855 176.605L90.034 160.236L83.742 193.595H26.903C19.2 181.718 13.5875 168.483 10.4365 154.462H50.472C50.7685 161.619 52.7355 168.753 56.466 175.227C57.4995 177.021 59.791 177.637 61.5855 176.605ZM50.771 146.962H8.997C8.011 140.755 7.5 134.419 7.5 128C7.5 125.868 7.559 123.745 7.668 121.632H62.4235C55.851 128.79 51.904 137.703 50.771 146.962ZM188.046 114.132C185.473 112.469 182.75 111.074 179.908 109.969L214.27 100.212C216.261 99.6465 217.418 97.5745 216.854 95.5825C211.027 75.0175 192.02 60.655 170.63 60.655C152.54 60.655 136.155 70.9195 128.001 86.5195C119.847 70.92 103.46 60.655 85.3705 60.655C63.981 60.655 44.9735 75.018 39.1475 95.5825C38.583 97.5745 39.74 99.6465 41.731 100.212L78.109 110.54C75.76 111.541 73.504 112.75 71.351 114.132H8.2925C15.0745 54.579 65.6295 7.5 128 7.5C190.373 7.5 240.926 54.581 247.708 114.132H188.046ZM183.117 235.183L176.689 201.095H223.79C212.915 215.337 199.051 226.978 183.117 235.183ZM229.096 193.595H175.275L168.946 160.026L197.76 176.605C199.553 177.638 201.846 177.021 202.879 175.227C206.609 168.753 208.577 161.619 208.874 154.462H245.577C242.469 168.325 236.922 181.561 229.096 193.595ZM247.009 146.962H208.576C207.443 137.702 203.496 128.79 196.921 121.632H248.332C248.441 123.745 248.5 125.868 248.5 128C248.5 134.391 247.995 140.728 247.009 146.962Z" fill="#CC0069"/>
<path d="M180.325 240.725C164.42 248.12 146.695 252.25 128 252.25C110.425 252.25 93.7 248.6 78.545 242.015C78.595 241.335 78.685 240.645 78.815 239.955L82.81 218.76H176.205L180.2 239.955C180.25 240.21 180.29 240.47 180.325 240.725Z" fill="#F9E9B4"/>
<path d="M168.125 175.93H90.89L92.325 168.325L95.23 152.92L129.675 133.1L163.75 152.71L166.65 168.115H166.655L168.125 175.93Z" fill="#F9E9B4"/>
<path d="M166.655 173.615H166.65L140.59 158.615C133.83 154.725 125.515 154.725 118.76 158.615L92.325 173.825L95.23 152.92L129.675 133.1L163.75 152.71L166.655 173.615Z" fill="#D0A311"/>
<path d="M176.205 218.76H82.8101L90.8901 175.93H168.125L176.205 218.76Z" fill="#F9E9B4"/>
<path d="M151.566 196.395C154.151 196.395 156.246 194.3 156.246 191.715C156.246 189.13 154.151 187.035 151.566 187.035C148.981 187.035 146.886 189.13 146.886 191.715C146.886 194.3 148.981 196.395 151.566 196.395Z" fill="#D0A311"/>
<path d="M139.419 208.079H119.599C117.528 208.079 115.849 206.4 115.849 204.329C115.849 202.258 117.528 200.579 119.599 200.579H139.419C141.49 200.579 143.169 202.258 143.169 204.329C143.169 206.4 141.49 208.079 139.419 208.079Z" fill="#D0A311"/>
<path d="M107.451 196.395C110.036 196.395 112.131 194.3 112.131 191.715C112.131 189.13 110.036 187.035 107.451 187.035C104.866 187.035 102.771 189.13 102.771 191.715C102.771 194.3 104.866 196.395 107.451 196.395Z" fill="#D0A311"/>
<path d="M163.82 110.64L213.245 96.605C207.98 78.02 190.895 64.405 170.63 64.405C150.355 64.405 133.265 78.02 128 96.605C122.735 78.02 105.645 64.405 85.37 64.405C65.105 64.405 48.02 78.02 42.755 96.605L92.665 110.775C82.905 111.55 73.375 115.725 66.005 123.29C52.655 137.01 50.605 157.545 59.715 173.355L95.23 152.92L129.675 133.1L163.75 152.71L199.63 173.355C208.74 157.545 206.695 137.01 193.34 123.29C185.255 114.985 174.565 110.76 163.82 110.64Z" fill="#7FEEF0"/>
<path d="M184.04 240.212C183.995 239.889 183.944 239.56 183.885 239.26L179.89 218.067C179.89 218.066 179.89 218.066 179.89 218.066L171.811 175.24C171.811 175.239 171.811 175.238 171.81 175.237L170.34 167.422C170.328 167.359 170.315 167.297 170.3 167.236L167.435 152.016C167.233 150.94 166.57 150.006 165.621 149.46L131.546 129.85C130.388 129.184 128.963 129.183 127.805 129.85L93.36 149.67C92.411 150.216 91.748 151.149 91.5455 152.225L87.2055 175.235V175.236L79.1255 218.065V218.066L75.1305 239.261C74.9755 240.085 74.8665 240.918 74.806 241.74C74.689 243.329 75.5895 244.819 77.0515 245.454C93.1555 252.452 110.297 256 128 256C146.822 256 164.959 252.005 181.906 244.125C183.399 243.431 184.265 241.844 184.04 240.212ZM98.5955 155.31L129.675 137.427L160.384 155.1L162.965 168.809C162.976 168.872 162.99 168.934 163.004 168.995L163.603 172.18H95.414L98.5955 155.31ZM93.999 179.68H165.016L171.682 215.01H87.3335L93.999 179.68ZM128 248.5C112.297 248.5 97.065 245.536 82.6815 239.687L85.9195 222.51H173.096L176.112 238.51C160.922 245.14 144.75 248.5 128 248.5Z" fill="#D0A311"/>
<path d="M199.626 177.106C198.991 177.106 198.349 176.945 197.76 176.605L129.675 137.427L61.585 176.605C59.792 177.638 57.499 177.021 56.4655 175.227C46.3415 157.658 49.159 135.225 63.317 120.675C67.565 116.314 72.6009 112.887 78.1084 110.54L41.7305 100.212C39.739 99.6465 38.5825 97.5745 39.147 95.5825C44.973 75.0175 63.9805 60.655 85.37 60.655C103.46 60.655 119.846 70.9195 128 86.5195C136.154 70.92 152.54 60.655 170.63 60.655C192.019 60.655 211.027 75.018 216.853 95.5825C217.417 97.5745 216.26 99.6465 214.269 100.212L179.908 109.97C185.913 112.303 191.397 115.919 196.026 120.674C210.187 135.222 213.004 157.655 202.878 175.227C202.185 176.432 200.923 177.106 199.626 177.106ZM129.675 129.35C130.321 129.35 130.966 129.517 131.545 129.85L198.09 168.143C204.437 154.05 201.604 137.157 190.653 125.906C183.535 118.594 173.99 114.504 163.778 114.39C161.914 114.369 160.35 112.984 160.103 111.137C159.856 109.29 161.003 107.542 162.795 107.033L208.447 94.069C202.47 78.641 187.419 68.155 170.63 68.155C152.57 68.155 136.524 80.2745 131.608 97.627C131.151 99.241 129.677 100.355 128 100.355C126.322 100.355 124.849 99.241 124.392 97.627C119.476 80.274 103.43 68.155 85.37 68.155C68.5805 68.155 53.53 78.6405 47.553 94.069L93.689 107.168C95.435 107.663 96.5755 109.338 96.3965 111.145C96.2179 112.951 94.771 114.37 92.9615 114.514C83.7555 115.245 75.136 119.291 68.6905 125.907C57.742 137.159 54.909 154.052 61.2545 168.143L127.804 129.85C128.383 129.517 129.029 129.35 129.675 129.35Z" fill="#25938C"/>
<path d="M397.648 189C396.445 189 395.68 188.453 395.352 187.36L378.788 142.096C378.569 141.659 378.296 141.44 377.968 141.44H367.636C367.089 141.44 366.816 141.713 366.816 142.26V187.032C366.816 187.579 366.597 188.071 366.16 188.508C365.832 188.836 365.395 189 364.848 189H345.66C345.113 189 344.621 188.836 344.184 188.508C343.856 188.071 343.692 187.579 343.692 187.032V76.168C343.692 75.6213 343.856 75.184 344.184 74.856C344.621 74.4187 345.113 74.2 345.66 74.2H385.676C392.127 74.2 397.867 75.676 402.896 78.628C407.925 81.4707 411.807 85.516 414.54 90.764C417.273 96.012 418.64 102.025 418.64 108.804C418.64 115.801 417.109 121.869 414.048 127.008C410.987 132.147 406.668 135.973 401.092 138.488C400.545 138.707 400.381 139.089 400.6 139.636L419.296 186.704C419.405 186.923 419.46 187.196 419.46 187.524C419.46 188.508 418.859 189 417.656 189H397.648ZM367.636 94.044C367.089 94.044 366.816 94.3173 366.816 94.864V122.908C366.816 123.455 367.089 123.728 367.636 123.728H381.904C385.949 123.728 389.229 122.416 391.744 119.792C394.259 117.059 395.516 113.451 395.516 108.968C395.516 104.376 394.259 100.768 391.744 98.144C389.229 95.4107 385.949 94.044 381.904 94.044H367.636ZM463.571 103.392C470.131 103.392 475.98 104.595 481.119 107C486.258 109.296 490.248 112.576 493.091 116.84C496.043 120.995 497.519 125.751 497.519 131.108V187.032C497.519 187.579 497.3 188.071 496.863 188.508C496.535 188.836 496.098 189 495.551 189H476.363C475.816 189 475.324 188.836 474.887 188.508C474.559 188.071 474.395 187.579 474.395 187.032V182.44C474.395 182.112 474.286 181.893 474.067 181.784C473.848 181.675 473.63 181.784 473.411 182.112C469.256 187.579 462.806 190.312 454.059 190.312C446.624 190.312 440.392 188.399 435.363 184.572C430.443 180.745 427.983 174.349 427.983 165.384C427.983 147.563 439.135 138.652 461.439 138.652H473.575C474.122 138.652 474.395 138.379 474.395 137.832V134.06C474.395 130.78 473.411 128.156 471.443 126.188C469.584 124.22 467.015 123.236 463.735 123.236C461.111 123.236 458.924 123.837 457.175 125.04C455.426 126.243 454.332 127.883 453.895 129.96C453.567 131.053 452.802 131.6 451.599 131.6L431.755 130.452C431.208 130.452 430.716 130.288 430.279 129.96C429.951 129.632 429.842 129.195 429.951 128.648C430.607 121.104 433.996 115.036 440.119 110.444C446.351 105.743 454.168 103.392 463.571 103.392ZM460.947 172.764C464.664 172.764 467.835 171.725 470.459 169.648C473.083 167.571 474.395 164.837 474.395 161.448V154.56C474.395 154.013 474.122 153.74 473.575 153.74H464.391C460.346 153.74 457.175 154.615 454.879 156.364C452.583 158.113 451.435 160.628 451.435 163.908C451.435 166.751 452.31 168.937 454.059 170.468C455.808 171.999 458.104 172.764 460.947 172.764ZM523.317 95.192C519.6 95.192 516.538 93.9893 514.133 91.584C511.728 89.0693 510.525 85.9533 510.525 82.236C510.525 78.4093 511.673 75.2933 513.969 72.888C516.374 70.4827 519.49 69.28 523.317 69.28C527.144 69.28 530.26 70.4827 532.665 72.888C535.07 75.2933 536.273 78.4093 536.273 82.236C536.273 85.9533 535.016 89.0693 532.501 91.584C530.096 93.9893 527.034 95.192 523.317 95.192ZM513.805 189C513.258 189 512.766 188.836 512.329 188.508C512.001 188.071 511.837 187.579 511.837 187.032V106.672C511.837 106.125 512.001 105.688 512.329 105.36C512.766 104.923 513.258 104.704 513.805 104.704H532.993C533.54 104.704 533.977 104.923 534.305 105.36C534.742 105.688 534.961 106.125 534.961 106.672V187.032C534.961 187.579 534.742 188.071 534.305 188.508C533.977 188.836 533.54 189 532.993 189H513.805ZM595.199 76.168C595.199 75.6213 595.363 75.184 595.691 74.856C596.128 74.4187 596.62 74.2 597.167 74.2H616.355C616.901 74.2 617.339 74.4187 617.667 74.856C618.104 75.184 618.323 75.6213 618.323 76.168V187.032C618.323 187.579 618.104 188.071 617.667 188.508C617.339 188.836 616.901 189 616.355 189H597.167C596.62 189 596.128 188.836 595.691 188.508C595.363 188.071 595.199 187.579 595.199 187.032V183.424C595.199 183.096 595.089 182.877 594.871 182.768C594.652 182.659 594.433 182.768 594.215 183.096C590.169 187.907 584.375 190.312 576.831 190.312C563.492 190.312 554.909 181.62 551.083 164.236C549.989 158.769 549.443 152.701 549.443 146.032C549.443 140.128 549.935 134.388 550.919 128.812C554.308 111.865 563.055 103.392 577.159 103.392C580.985 103.392 584.265 103.939 586.999 105.032C589.732 106.016 592.137 107.765 594.215 110.28C594.433 110.608 594.652 110.717 594.871 110.608C595.089 110.499 595.199 110.28 595.199 109.952V76.168ZM593.887 160.956C594.652 157.785 595.035 153.029 595.035 146.688C595.035 140.893 594.597 136.083 593.723 132.256C592.301 126.243 589.076 123.236 584.047 123.236C581.532 123.236 579.455 124.001 577.815 125.532C576.175 127.063 574.972 129.249 574.207 132.092C573.223 135.263 572.731 140.128 572.731 146.688C572.731 152.92 573.113 157.621 573.879 160.792C575.3 167.243 578.689 170.468 584.047 170.468C588.967 170.468 592.247 167.297 593.887 160.956ZM703.944 190.312C696.509 190.312 689.949 188.781 684.264 185.72C678.578 182.659 674.15 178.395 670.98 172.928C667.918 167.352 666.388 160.956 666.388 153.74V76.168C666.388 75.6213 666.552 75.184 666.88 74.856C667.317 74.4187 667.809 74.2 668.356 74.2H687.544C688.09 74.2 688.528 74.4187 688.856 74.856C689.293 75.184 689.512 75.6213 689.512 76.168V154.888C689.512 159.589 690.824 163.361 693.448 166.204C696.072 169.047 699.57 170.468 703.944 170.468C708.317 170.468 711.816 169.047 714.44 166.204C717.064 163.361 718.376 159.589 718.376 154.888V76.168C718.376 75.6213 718.54 75.184 718.868 74.856C719.305 74.4187 719.797 74.2 720.344 74.2H739.532C740.078 74.2 740.516 74.4187 740.844 74.856C741.281 75.184 741.5 75.6213 741.5 76.168V153.74C741.5 160.956 739.914 167.352 736.744 172.928C733.682 178.395 729.309 182.659 723.624 185.72C717.938 188.781 711.378 190.312 703.944 190.312ZM759.984 189C759.438 189 758.946 188.836 758.508 188.508C758.18 188.071 758.016 187.579 758.016 187.032V76.168C758.016 75.6213 758.18 75.184 758.508 74.856C758.946 74.4187 759.438 74.2 759.984 74.2H779.172C779.719 74.2 780.156 74.4187 780.484 74.856C780.922 75.184 781.14 75.6213 781.14 76.168V187.032C781.14 187.579 780.922 188.071 780.484 188.508C780.156 188.836 779.719 189 779.172 189H759.984ZM833.176 189C832.629 189 832.137 188.836 831.7 188.508C831.372 188.071 831.208 187.579 831.208 187.032V76.168C831.208 75.6213 831.372 75.184 831.7 74.856C832.137 74.4187 832.629 74.2 833.176 74.2H852.364C852.91 74.2 853.348 74.4187 853.676 74.856C854.113 75.184 854.332 75.6213 854.332 76.168V119.792C854.332 120.12 854.441 120.339 854.66 120.448C854.988 120.557 855.206 120.448 855.316 120.12L884.672 75.512C885.218 74.6373 885.984 74.2 886.968 74.2H908.124C908.889 74.2 909.381 74.4187 909.6 74.856C909.928 75.2933 909.873 75.84 909.436 76.496L879.096 123.564C878.986 123.892 878.986 124.275 879.096 124.712L911.24 186.704C911.458 187.141 911.568 187.469 911.568 187.688C911.568 188.563 910.966 189 909.764 189H888.772C887.788 189 887.022 188.508 886.476 187.524L863.188 142.588C863.078 142.26 862.914 142.096 862.696 142.096C862.477 142.096 862.258 142.26 862.04 142.588L854.66 153.248C854.441 153.685 854.332 154.013 854.332 154.232V187.032C854.332 187.579 854.113 188.071 853.676 188.508C853.348 188.836 852.91 189 852.364 189H833.176ZM933.317 95.192C929.6 95.192 926.538 93.9893 924.133 91.584C921.728 89.0693 920.525 85.9533 920.525 82.236C920.525 78.4093 921.673 75.2933 923.969 72.888C926.374 70.4827 929.49 69.28 933.317 69.28C937.144 69.28 940.26 70.4827 942.665 72.888C945.07 75.2933 946.273 78.4093 946.273 82.236C946.273 85.9533 945.016 89.0693 942.501 91.584C940.096 93.9893 937.034 95.192 933.317 95.192ZM923.805 189C923.258 189 922.766 188.836 922.329 188.508C922.001 188.071 921.837 187.579 921.837 187.032V106.672C921.837 106.125 922.001 105.688 922.329 105.36C922.766 104.923 923.258 104.704 923.805 104.704H942.993C943.54 104.704 943.977 104.923 944.305 105.36C944.742 105.688 944.961 106.125 944.961 106.672V187.032C944.961 187.579 944.742 188.071 944.305 188.508C943.977 188.836 943.54 189 942.993 189H923.805ZM1003.72 120.12C1003.72 120.667 1003.5 121.159 1003.07 121.596C1002.74 121.924 1002.3 122.088 1001.75 122.088H989.127C988.58 122.088 988.307 122.361 988.307 122.908V159.808C988.307 163.197 988.963 165.657 990.275 167.188C991.696 168.609 993.828 169.265 996.671 169.156H999.951C1000.5 169.156 1000.93 169.375 1001.26 169.812C1001.7 170.14 1001.92 170.577 1001.92 171.124V187.032C1001.92 188.344 1001.26 189 999.951 189C998.092 189.109 995.359 189.164 991.751 189.164C983.113 189.164 976.663 187.743 972.399 184.9C968.244 182.057 966.167 176.7 966.167 168.828V122.908C966.167 122.361 965.893 122.088 965.347 122.088H957.803C957.256 122.088 956.764 121.924 956.327 121.596C955.999 121.159 955.835 120.667 955.835 120.12V106.672C955.835 106.125 955.999 105.688 956.327 105.36C956.764 104.923 957.256 104.704 957.803 104.704H965.347C965.893 104.704 966.167 104.431 966.167 103.884V85.024C966.167 84.4773 966.331 84.04 966.659 83.712C967.096 83.2747 967.588 83.056 968.135 83.056H986.339C986.885 83.056 987.323 83.2747 987.651 83.712C988.088 84.04 988.307 84.4773 988.307 85.024V103.884C988.307 104.431 988.58 104.704 989.127 104.704H1001.75C1002.3 104.704 1002.74 104.923 1003.07 105.36C1003.5 105.688 1003.72 106.125 1003.72 106.672V120.12Z" fill="#fffcfb"/>
</svg>
